<?xml version="1.0" encoding="UTF-8"?>
<svg id="Layer_2" data-name="Layer 2" xmlns="http://www.w3.org/2000/svg" viewBox="0 0 284.84 64.73">
  <defs>
    <style>
      .cls-1 {
        fill: #dc1f29;
        font-family: AvenirNext-DemiBoldItalic, 'Avenir Next';
        font-size: 15px;
        font-style: italic;
        font-weight: 300;
        letter-spacing: .08em;
      }

      .cls-2 {
        fill: #f99c2c;
      }

      .cls-3 {
        fill: #694d3e;
      }

      .cls-4 {
        fill: #e6454f;
      }

      .cls-5 {
        fill: #ed1c24;
      }

      .cls-6 {
        fill: #ef4553;
      }

      .cls-7 {
        fill: #5ab48f;
      }
    </style>
  </defs>
  <g id="Layer_1-2" data-name="Layer 1">
    <g>
      <g>
        <path class="cls-3" d="m2.33,19.27l.4-5.23c.09-1.8.18-3.61.22-5.41.4-3.3,1.23-4.88,2.51-4.71,1.01.13,1.5.7,1.5,1.8l-1.45,13.02s.75,0,2.24-.04c1.54-.04,2.73-.09,3.65-.09,1.36-.04,2.16,0,2.33.04.22-.4.31-2.9.31-7.52.31-1.8.62-3.65.92-5.46.75-3.34,1.8-5.02,3.12-5.02,1.19,0,1.76.4,1.76,1.19,0-.04-.31.88-.92,2.86-.57,1.94-.88,3.3-.92,4.09-.18,1.28-.35,2.6-.57,3.92-.35,3.04-.53,5.81-.53,8.31,0,3.04-.18,8.01-.48,14.96-.84.62-1.41.92-1.72.92-.35.04-.88-.75-.92-.75.13-.48.18-1.58.18-3.39,0-.13-.04-1.32-.09-3.65-.04-2.33-.04-4-.04-5.02,0-.79,0-1.76-.04-2.86-.44,0-1.67.13-3.74.4-2.38.31-4.05.62-5.01.92-.4,2.11-.79,4.22-1.19,6.38-.66,3.3-1.19,5.45-1.63,6.38-.31.22-.57.35-.84.35-.75,0-1.36-.88-1.36-1.45,0-.18.26-1.85.79-5.02.57-3.3.92-5.41.97-6.25-.22-.22-.4-.48-.57-.75-.31-.4-.44-.84-.44-1.41s.53-1.06,1.58-1.54Z"/>
        <path class="cls-3" d="m26.35,37.13c-.75,0-1.76-1.23-2.99-3.65-.62-2.68-.88-5.06-.79-7.21.13-3.52.13-5.37,0-5.5l.4-1.19c.22-.53.7-.79,1.41-.79,1.01,0,1.54.7,1.54,2.16,0,.4-.04.88-.13,1.45s-.13.88-.13.92v4.49c0,2.86.62,5.72,1.89,8.58-.22.48-.62.75-1.19.75Zm1.76-23.67c-.97.66-1.76.97-2.33.97s-1.06-.26-1.36-.75c-.26-.4-.4-.79-.4-1.23,0-.66.26-1.19.79-1.54.31-.22.88-.31,1.63-.31.53,0,1.01.09,1.5.26.62.26.92.62.92,1.06,0,.66-.26,1.19-.75,1.54Z"/>
        <path class="cls-3" d="m52.71,31.59c-1.23,1.36-2.33,2.07-3.3,2.07s-1.72-.62-2.16-1.85c-.48-2.24-.53-3.17-.53-3.52-.13,0-.04-.13-.4-.13-.09,0-1.1.97-3.08,2.9-1.94,1.94-2.95,2.9-2.99,2.9-.44.13-.7.4-1.36.35-.62-.22-1.01-.97-1.19-2.24-.09-1.01-.18-2.07-.31-3.08-.84,1.01-1.67,1.98-2.51,2.99-1.54,1.76-2.6,2.64-3.12,2.64s-.97-.35-1.32-1.06c-.31-.53-.44-.97-.44-1.36,0-1.01.44-3.26,1.36-6.82.48-1.72.92-3.43,1.36-5.15.62-.31,1.14-.53,1.54-.57.53-.18,1.1.35,1.23.35.13.13.22.35.26.57.04.13.04.35,0,.57-.04.26-.09.44-.09.48s-.35,1.06-1.01,3.04c-.66,1.98-1.01,3.21-1.01,3.74.4-.26.88-.79,1.45-1.63.57-.84,1.01-1.36,1.36-1.67.66-.53,1.5-.79,2.46-.79.4,0,.75.7,1.06,2.07.4,1.8.57,2.68.62,2.73,1.01-.84,2.07-1.72,3.08-2.55,1.72-1.41,3.08-2.11,4-2.11.57,0,1.1.88,1.58,2.6.31,1.1.57,2.16.84,3.26.97-.66,2.16-1.45,3.52-2.38.53-.26.92-.4,1.14-.4s.31.35.31,1.01c-1.36,1.8-2.16,2.82-2.38,3.04Z"/>
        <path class="cls-3" d="m71.1,30.75c-1.72.48-2.95.75-3.65.75-.53,0-1.01-.22-1.45-.66-.14-.09-.22-.31-.22-.62,0-.48.22-1.32.66-2.59.48-1.28.7-2.03.7-2.2,0-.22-.18-.49-.57-.84-.31-.22-.57-.48-.88-.75.13-.09.26-.39.44-.97.22-.57.31-.96.31-1.23,0-.3-.18-.74-.49-1.32-.39-.74-.83-1.14-1.36-1.14-2.07,0-4.36,1.45-6.95,4.35-1.29,1.45-2.26,2.79-2.9,4.01-.5.95-.8,1.84-.92,2.66-.03.25-.05.49-.05.72,0,.71.26,1.41.79,2.12.62.79,1.36,1.18,2.24,1.18.71,0,1.67-.3,2.91-.96.83-.49,1.71-.97,2.55-1.46.17.58.61,1.15,1.36,1.81.75.66,1.5.97,2.24.97h1.19c1.76,0,3.35-1.02,4.71-3-.13-.35-.09-.83-.66-.83Zm-9.72-2.55c-.35.31-1.37,1.19-3.08,2.55-.75.22-1.15.13-1.19-.26.31-1.37.97-2.82,2.02-4.32,1.24-1.8,2.6-2.99,4.14-3.6-.04.13-.04.3-.04.44,0,.48.35,1.1,1.01,1.76-.62,1.1-1.59,2.24-2.86,3.43Z"/>
        <path class="cls-5" d="m64.24,24.77c-.62,1.1-1.59,2.24-2.86,3.43-.35.31-1.37,1.19-3.08,2.55-.75.22-1.15.13-1.19-.26.31-1.37.97-2.82,2.02-4.32,1.24-1.8,2.6-2.99,4.14-3.6-.04.13-.04.3-.04.44,0,.48.35,1.1,1.01,1.76Z"/>
        <path class="cls-3" d="m76.86,3.65c.13-1.76.35-2.95,2.29-2.99.57,0,1.19.97,1.19,1.32.04.4-.62,4.97-1.98,13.73-1.32,8.75-1.94,14.03-1.85,15.84.04,2.42.31,4,.75,4.79.04.62-.13.97-.53,1.1-.04.09-.22.18-.62.26-1.23.04-1.98-1.67-2.24-5.19-.04-.53-.04-1.14-.04-1.8,0-2.68.4-6.69,1.14-12.05.48-2.86,1.1-7.17,1.8-12.98.04-.66.04-1.36.09-2.02Z"/>
        <path class="cls-3" d="m96.57,30.75c-1.71.48-2.94.75-3.65.75-.52,0-1.01-.22-1.45-.66-.13-.09-.22-.31-.22-.62,0-.48.22-1.32.66-2.59.49-1.28.71-2.03.71-2.2,0-.22-.18-.49-.58-.84-.3-.22-.57-.48-.88-.75.14-.09.27-.39.44-.97.22-.57.31-.96.31-1.23,0-.3-.17-.74-.48-1.32-.4-.74-.84-1.14-1.37-1.14-2.06,0-4.35,1.45-6.95,4.35-2.59,2.91-3.87,5.37-3.87,7.39,0,.71.27,1.41.79,2.12.62.79,1.37,1.18,2.25,1.18.7,0,1.67-.3,2.9-.96.84-.49,1.72-.97,2.55-1.46.18.58.62,1.15,1.37,1.81.74.66,1.49.97,2.24.97h1.19c1.76,0,3.34-1.02,4.7-3-.13-.35-.08-.83-.66-.83Zm-9.72-2.55c-.35.31-1.36,1.19-3.08,2.55-.74.22-1.14.13-1.18-.26.3-1.37.96-2.82,2.02-4.32,1.23-1.8,2.59-2.99,4.13-3.6-.04.13-.04.3-.04.44,0,.48.35,1.1,1.01,1.76-.61,1.1-1.58,2.24-2.86,3.43Z"/>
        <path class="cls-7" d="m89.71,24.77c-.61,1.1-1.58,2.24-2.86,3.43-.35.31-1.36,1.19-3.08,2.55-.74.22-1.14.13-1.18-.26.3-1.37.96-2.82,2.02-4.32,1.23-1.8,2.59-2.99,4.13-3.6-.04.13-.04.3-.04.44,0,.48.35,1.1,1.01,1.76Z"/>
        <path class="cls-3" d="m137.67,30.75c-1.72.48-2.95.75-3.65.75-.53,0-1.01-.22-1.45-.66-.14-.09-.22-.31-.22-.62,0-.48.22-1.32.66-2.59.48-1.28.7-2.03.7-2.2,0-.22-.18-.49-.57-.84-.31-.22-.57-.48-.88-.75.13-.09.26-.39.44-.97.22-.57.31-.96.31-1.23,0-.3-.18-.74-.49-1.32-.39-.74-.83-1.14-1.36-1.14-2.07,0-4.36,1.45-6.95,4.35-2.6,2.91-3.87,5.37-3.87,7.39,0,.71.26,1.41.79,2.12.61.79,1.36,1.18,2.24,1.18.71,0,1.67-.3,2.9-.96.84-.49,1.72-.97,2.56-1.46.17.58.61,1.15,1.36,1.81.75.66,1.5.97,2.24.97h1.19c1.76,0,3.34-1.02,4.71-3-.13-.35-.09-.83-.66-.83Zm-9.72-2.55c-.36.31-1.37,1.19-3.08,2.55-.75.22-1.15.13-1.19-.26.31-1.37.97-2.82,2.02-4.32,1.24-1.8,2.6-2.99,4.14-3.6-.05.13-.05.3-.05.44,0,.48.36,1.1,1.02,1.76-.62,1.1-1.59,2.24-2.86,3.43Z"/>
        <path class="cls-2" d="m130.81,24.77c-.62,1.1-1.59,2.24-2.86,3.43-.36.31-1.37,1.19-3.08,2.55-.75.22-1.15.13-1.19-.26.31-1.37.97-2.82,2.02-4.32,1.24-1.8,2.6-2.99,4.14-3.6-.05.13-.05.3-.05.44,0,.48.36,1.1,1.02,1.76Z"/>
        <path class="cls-3" d="m154.74,29.47c1.28-.84,2.24-1.45,2.9-1.8.26.31.4.53.4.75,0,.79-1.06,2.02-3.17,3.74-1.98,1.58-3.21,2.38-3.65,2.38-.84,0-1.41-1.1-1.63-3.25-.13-1.58-.22-3.17-.31-4.75-.57.7-1.32,1.63-2.33,2.82-.84.92-1.76,2.42-2.73,4.44-.75,1.5-1.36,2.24-1.94,2.24-.44,0-.79-.31-1.1-.88-.22-.44-.31-.79-.31-1.06,0-1.23.35-4,1.01-8.31.84-5.28,1.63-7.92,2.42-7.92,1.01,0,1.85.79,1.85,1.5,0,.57-.48,2.99-1.5,7.26l-.18,1.58c.26-.62,1.06-1.72,2.33-3.3,1.58-1.98,2.77-2.9,3.56-2.77,1.19.04,1.85.92,1.98,2.55.13,1.98.22,3.96.31,5.94.4-.09,1.06-.48,2.07-1.14Z"/>
        <path class="cls-3" d="m182.37,14.78c-3.65,4.66-5.46,7.35-5.41,8.05.04.44.35,1.14.92,2.07.4.53,1.32,1.8,2.77,3.78,1.28,1.45,3.12,3.21,5.54,5.37.09.04.13.13.13.22,0,.48-1.14,1.06-1.63,1.1-.92.04-2.64-1.23-5.24-3.74-2.2-2.16-3.65-3.74-4.4-4.84-.84,1.14-1.5,2.9-1.89,5.24-.62,3.47-1.01,5.45-1.14,5.89-.31.31-.66.48-1.01.48-.18,0-.35-.04-.48-.13-.22-.31-.48-.79-.7-1.36-.13-2.55.26-6.73,1.14-12.49l1.98-12.14c.48-3.04.75-5.28.75-6.73,0-.62-.04-1.14-.09-1.63-.18-1.19.92-2.38,2.02-2.42.92-.04,1.67.79,1.72,1.63.09,1.45-.18,3.92-.75,7.43-.57,3.48-.88,5.5-.97,6.07,0,.18-.26,1.32-.26,1.89,0,.31.04.53.18.7,1.23-1.72,3.04-4.18,5.46-7.3,3.7-4.79,5.85-7.26,6.47-7.43.75-.22,1.28-.04,1.67.48.31.57.31.97.13,1.32-1.19,1.36-3.52,4.18-6.91,8.49Z"/>
        <path class="cls-3" d="m193.9,37.13c-.75,0-1.76-1.23-2.99-3.65-.62-2.68-.88-5.06-.79-7.21.13-3.52.13-5.37,0-5.5l.4-1.19c.22-.53.7-.79,1.41-.79,1.01,0,1.54.7,1.54,2.16,0,.4-.04.88-.13,1.45s-.13.88-.13.92v4.49c0,2.86.62,5.72,1.89,8.58-.22.48-.62.75-1.19.75Zm1.76-23.67c-.97.66-1.76.97-2.33.97s-1.06-.26-1.36-.75c-.26-.4-.4-.79-.4-1.23,0-.66.26-1.19.79-1.54.31-.22.88-.31,1.63-.31.53,0,1.01.09,1.5.26.62.26.92.62.92,1.06,0,.66-.26,1.19-.75,1.54Z"/>
        <path class="cls-3" d="m197.81,21.64c-.22-.44-.35-.88-.35-1.32,0-.97.75-1.45,2.29-1.45,1.1,0,2.02-.04,2.82-.13.22-1.36.62-3.39,1.19-6.16.4-1.8.75-3.04,1.06-3.78.66-1.5,1.41-2.2,2.29-2.11.18.04.48.26.97.66.48.4.7.75.7.97,0-.04-.44,1.23-1.36,3.78-.92,2.68-1.5,4.88-1.72,6.51l1.89-.13c1.32,0,2.2.04,2.6.18.22.18.35.35.35.57,0-.09-.13.26-.35,1.01-2.33.92-3.96,1.45-4.88,1.58-.22.57-.35,1.76-.35,3.48,0,1.89.18,3.48.48,4.79.4,1.63,1.01,2.42,1.76,2.42.53,0,1.14-.35,1.89-1.01s1.14-1.01,1.28-1.01c.22,0,.48-.09.62-.09.22,0,.48.22.7.66v.66c-.26.84-1.01,1.63-2.2,2.46-1.19.84-2.16,1.23-2.99,1.23-3.08,0-4.62-3.12-4.62-9.33,0-1.23.04-2.55.18-3.92-.13,0-.66.04-1.54.18-.84.09-1.36.13-1.5.13-.48,0-.88-.26-1.19-.84Z"/>
        <path class="cls-3" d="m223.55,33.74c-2.6,1.1-4.44,1.63-5.59,1.58-.92-.04-1.89-.4-2.86-1.06-1.14-.79-1.72-1.67-1.76-2.68-.04-2.77,1.28-5.94,4.05-9.5,2.68-3.48,5.06-5.23,7.08-5.23,1.1,0,2.11.62,2.11,1.5,0,.18-.22.66-.66,1.45-1.5-.26-3.47,1.06-5.89,3.96-2.33,2.82-3.47,5.06-3.47,6.73,0,.57.4,1.01,1.14,1.32.48.22.88.31,1.28.31.13,0,.53-.04,1.14-.13.66-.09,1.14-.18,1.5-.31.4-.13,1.23-.48,2.6-1.06,1.36-.57,2.07-.88,2.2-.92.48-.13.97.18,1.14.18t.04.09c.13.13.22.31.22.53,0,.97-1.41,2.07-4.27,3.25Z"/>
        <path class="cls-3" d="m244.8,33.26c-.84.57-1.36.84-1.58.84-1.19,0-2.07-1.14-2.64-3.48-.04-.18-.26-1.41-.62-3.7-.4.31-1.41,1.85-3.08,4.62-1.54,2.55-2.55,3.83-2.95,3.83-.7,0-1.32-.35-1.8-1.01-.44-.57-.66-1.19-.66-1.8,0-4.49.53-9.63,1.63-15.48.83-3.78,1.63-7.57,2.46-11.39.75-2.2,1.14-3.39,1.23-3.56.66-1.41,1.54-2.11,2.64-2.11.22,0,.53.22.88.66.35.44.53.79.53,1.01,0,.26-.18.66-.53,1.23-.18.31-.35.57-.53.88-1.1,2.29-2.2,6.29-3.34,12.05-.84,4.18-1.5,8.01-1.89,11.39l.18,2.42c1.01-1.67,1.98-3.34,2.95-4.97,1.23-1.89,2.33-2.86,3.26-2.86.7,0,1.23.62,1.63,1.89.22.7.44,2.02.66,3.92.22,1.67.44,2.73.66,3.17.48-.13.88-.18,1.19-.18.84,0,1.28.31,1.28.92,0,.53-.53,1.1-1.54,1.72Z"/>
        <path class="cls-3" d="m263.06,29.03c-.52.75-1.49,1.46-2.86,2.12-1.36.65-2.37,1.01-3.03,1.01-.97,0-1.76-.22-2.42-.62-.88-.57-1.23-1.45-1.06-2.64,2.11-.53,4.01-1.63,5.63-3.3,1.81-1.8,2.73-3.69,2.73-5.72,0-1.45-.97-2.2-2.95-2.2-2.77,0-5.63,2.64-8.57,7.92-.05,2.6-.22,3.48-.22,3.83,0,3.34,2.33,5.85,5.85,5.85,1.98-.22,3.87-.92,5.58-2.2l1.63-1.67c.48-.66.79-1.28,1.06-1.94-.05-1.05-.53-1.18-1.37-.44Zm-6.9-6.42c.79-.92,1.49-1.49,2.11-1.63.26-.04.57,0,.83.22-.7,1.67-2.24,2.95-4.57,3.79.44-.84.97-1.63,1.63-2.38Z"/>
        <path class="cls-4" d="m259.1,21.2c-.7,1.67-2.24,2.95-4.57,3.79.44-.84.97-1.63,1.63-2.38.79-.92,1.49-1.49,2.11-1.63.26-.04.57,0,.83.22Z"/>
        <path class="cls-3" d="m281.54,29.47c1.28-.84,2.24-1.45,2.9-1.8.26.31.4.53.4.75,0,.79-1.06,2.02-3.17,3.74-1.98,1.58-3.21,2.38-3.65,2.38-.84,0-1.41-1.1-1.63-3.25-.13-1.58-.22-3.17-.31-4.75-.57.7-1.32,1.63-2.33,2.82-.84.92-1.76,2.42-2.73,4.44-.75,1.5-1.36,2.24-1.94,2.24-.44,0-.79-.31-1.1-.88-.22-.44-.31-.79-.31-1.06,0-1.23.35-4,1.01-8.31.84-5.28,1.63-7.92,2.42-7.92,1.01,0,1.85.79,1.85,1.5,0,.57-.48,2.99-1.5,7.26l-.18,1.58c.26-.62,1.06-1.72,2.33-3.3,1.58-1.98,2.77-2.9,3.56-2.77,1.19.04,1.85.92,1.98,2.55.13,1.98.22,3.96.31,5.94.4-.09,1.06-.48,2.07-1.14Z"/>
      </g>
      <path class="cls-6" d="m98.47,10.32s-4.92,13.68,5.47,23.91c8.39,8.26,10.94,15.21,9.16,21.5s-6.23,5.42-6.23,5.42c0,0,8.69,1.69,8.42-10.75s-3.28-19.29,3.01-28.18c0,0-13.68,5.2-18.47-3.69,0,0-1.91-2.33-1.37-8.21Z"/>
      <path class="cls-2" d="m102.47,12.72c0-2.47,2.85-5.32,8.04-5.32s7.79,3.09,7.79,5.32-1.32,5.94-7.91,5.94-7.91-4.36-7.91-5.94Z"/>
      <text class="cls-1" transform="translate(125.05 58.02)"><tspan x="0" y="0">Indian Cuisine</tspan></text>
    </g>
  </g>
</svg>