<?xml version="1.0" encoding="UTF-8"?>
<svg id="Layer_2" data-name="Layer 2" xmlns="http://www.w3.org/2000/svg" viewBox="0 0 188.82 40.59">
  <defs>
    <style>
      .cls-1 {
        fill: #f89b2c;
      }

      .cls-2 {
        fill: #694d3e;
      }

      .cls-3 {
        fill: #ee4553;
      }

      .cls-4 {
        fill: #ec1c24;
      }

      .cls-5 {
        fill: #e5454f;
      }

      .cls-6 {
        fill: #5ab38e;
      }

      .cls-7 {
        fill: #2d2d2d;
        font-family: ArialMT, Arial;
        font-size: 9px;
      }
    </style>
  </defs>
  <g id="Layer_1-2" data-name="Layer 1">
    <g>
      <g>
        <path class="cls-2" d="m1.55,12.77l.26-3.47c.06-1.2.12-2.39.15-3.59.26-2.19.82-3.24,1.66-3.12.67.09.99.47.99,1.2l-.96,8.63s.5,0,1.49-.03c1.02-.03,1.81-.06,2.42-.06.9-.03,1.43,0,1.55.03.15-.26.2-1.92.2-4.99.2-1.2.41-2.42.61-3.62.5-2.22,1.2-3.32,2.07-3.32.79,0,1.17.26,1.17.79,0-.03-.2.58-.61,1.9-.38,1.28-.58,2.19-.61,2.71-.12.85-.23,1.72-.38,2.6-.23,2.01-.35,3.85-.35,5.51,0,2.01-.12,5.31-.32,9.91-.55.41-.93.61-1.14.61-.23.03-.58-.5-.61-.5.09-.32.12-1.05.12-2.25,0-.09-.03-.87-.06-2.42-.03-1.55-.03-2.65-.03-3.32,0-.52,0-1.17-.03-1.9-.29,0-1.11.09-2.48.26-1.57.2-2.68.41-3.32.61-.26,1.4-.53,2.8-.79,4.23-.44,2.19-.79,3.62-1.08,4.23-.2.15-.38.23-.55.23-.5,0-.9-.58-.9-.96,0-.12.18-1.22.53-3.32.38-2.19.61-3.59.64-4.14-.15-.15-.26-.32-.38-.5-.2-.26-.29-.55-.29-.93s.35-.7,1.05-1.02Z"/>
        <path class="cls-2" d="m17.47,24.61c-.5,0-1.17-.82-1.98-2.42-.41-1.78-.58-3.35-.53-4.78.09-2.33.09-3.56,0-3.65l.26-.79c.15-.35.47-.53.93-.53.67,0,1.02.47,1.02,1.43,0,.26-.03.58-.09.96s-.09.58-.09.61v2.97c0,1.9.41,3.79,1.25,5.69-.15.32-.41.5-.79.5Zm1.17-15.69c-.64.44-1.17.64-1.55.64s-.7-.18-.9-.5c-.18-.26-.26-.52-.26-.82,0-.44.18-.79.53-1.02.2-.15.58-.2,1.08-.2.35,0,.67.06.99.17.41.18.61.41.61.7,0,.44-.17.79-.5,1.02Z"/>
        <path class="cls-2" d="m34.94,20.94c-.82.9-1.55,1.37-2.19,1.37s-1.14-.41-1.43-1.22c-.32-1.49-.35-2.1-.35-2.33-.09,0-.03-.09-.26-.09-.06,0-.73.64-2.04,1.92-1.28,1.28-1.95,1.92-1.98,1.92-.29.09-.47.26-.9.23-.41-.15-.67-.64-.79-1.49-.06-.67-.12-1.37-.2-2.04-.55.67-1.11,1.31-1.66,1.98-1.02,1.17-1.72,1.75-2.07,1.75s-.64-.23-.87-.7c-.2-.35-.29-.64-.29-.9,0-.67.29-2.16.9-4.52.32-1.14.61-2.27.9-3.41.41-.2.76-.35,1.02-.38.35-.12.73.23.82.23.09.09.15.23.17.38.03.09.03.23,0,.38-.03.18-.06.29-.06.32s-.23.7-.67,2.01c-.44,1.31-.67,2.13-.67,2.48.26-.18.58-.53.96-1.08.38-.55.67-.9.9-1.11.44-.35.99-.53,1.63-.53.26,0,.5.47.7,1.37.26,1.2.38,1.78.41,1.81.67-.55,1.37-1.14,2.04-1.69,1.14-.93,2.04-1.4,2.65-1.4.38,0,.73.58,1.05,1.72.2.73.38,1.43.55,2.16.64-.44,1.43-.96,2.33-1.57.35-.18.61-.26.76-.26s.2.23.2.67c-.9,1.2-1.43,1.87-1.57,2.01Z"/>
        <path class="cls-2" d="m47.13,20.38c-1.14.32-1.96.5-2.42.5-.35,0-.67-.15-.96-.44-.09-.06-.15-.21-.15-.41,0-.32.15-.88.44-1.72.32-.85.46-1.35.46-1.46,0-.15-.12-.32-.38-.56-.21-.15-.38-.32-.58-.5.09-.06.17-.26.29-.64.15-.38.21-.64.21-.82,0-.2-.12-.49-.32-.88-.26-.49-.55-.76-.9-.76-1.37,0-2.89.96-4.61,2.88-.86.96-1.5,1.85-1.92,2.66-.33.63-.53,1.22-.61,1.76-.02.17-.03.32-.03.48,0,.47.17.93.52,1.41.41.52.9.78,1.48.78.47,0,1.11-.2,1.93-.64.55-.32,1.13-.64,1.69-.97.11.38.4.76.9,1.2.5.44.99.64,1.48.64h.79c1.17,0,2.22-.68,3.12-1.99-.09-.23-.06-.55-.44-.55Zm-6.44-1.69c-.23.21-.91.79-2.04,1.69-.5.15-.76.09-.79-.17.21-.91.64-1.87,1.34-2.86.82-1.19,1.72-1.98,2.74-2.39-.03.09-.03.2-.03.29,0,.32.23.73.67,1.17-.41.73-1.05,1.48-1.9,2.27Z"/>
        <path class="cls-4" d="m42.58,16.42c-.41.73-1.05,1.48-1.9,2.27-.23.21-.91.79-2.04,1.69-.5.15-.76.09-.79-.17.21-.91.64-1.87,1.34-2.86.82-1.19,1.72-1.98,2.74-2.39-.03.09-.03.2-.03.29,0,.32.23.73.67,1.17Z"/>
        <path class="cls-2" d="m50.95,2.42c.09-1.17.23-1.95,1.52-1.98.38,0,.79.64.79.87.03.26-.41,3.3-1.31,9.1-.87,5.8-1.28,9.3-1.22,10.5.03,1.6.2,2.65.5,3.18.03.41-.09.64-.35.73-.03.06-.15.12-.41.18-.82.03-1.31-1.11-1.49-3.44-.03-.35-.03-.76-.03-1.2,0-1.78.26-4.43.76-7.99.32-1.9.73-4.75,1.2-8.6.03-.44.03-.9.06-1.34Z"/>
        <path class="cls-2" d="m64.01,20.38c-1.13.32-1.95.5-2.42.5-.34,0-.67-.15-.96-.44-.09-.06-.15-.21-.15-.41,0-.32.15-.88.44-1.72.32-.85.47-1.35.47-1.46,0-.15-.12-.32-.38-.56-.2-.15-.38-.32-.58-.5.09-.06.18-.26.29-.64.15-.38.21-.64.21-.82,0-.2-.11-.49-.32-.88-.27-.49-.56-.76-.91-.76-1.37,0-2.88.96-4.61,2.88-1.72,1.93-2.57,3.56-2.57,4.9,0,.47.18.93.52,1.41.41.52.91.78,1.49.78.46,0,1.11-.2,1.92-.64.56-.32,1.14-.64,1.69-.97.12.38.41.76.91,1.2.49.44.99.64,1.48.64h.79c1.17,0,2.21-.68,3.12-1.99-.09-.23-.05-.55-.44-.55Zm-6.44-1.69c-.23.21-.9.79-2.04,1.69-.49.15-.76.09-.78-.17.2-.91.64-1.87,1.34-2.86.82-1.19,1.72-1.98,2.74-2.39-.03.09-.03.2-.03.29,0,.32.23.73.67,1.17-.4.73-1.05,1.48-1.9,2.27Z"/>
        <path class="cls-6" d="m59.47,16.42c-.4.73-1.05,1.48-1.9,2.27-.23.21-.9.79-2.04,1.69-.49.15-.76.09-.78-.17.2-.91.64-1.87,1.34-2.86.82-1.19,1.72-1.98,2.74-2.39-.03.09-.03.2-.03.29,0,.32.23.73.67,1.17Z"/>
        <path class="cls-2" d="m91.26,20.38c-1.14.32-1.96.5-2.42.5-.35,0-.67-.15-.96-.44-.09-.06-.15-.21-.15-.41,0-.32.15-.88.44-1.72.32-.85.46-1.35.46-1.46,0-.15-.12-.32-.38-.56-.21-.15-.38-.32-.58-.5.09-.06.17-.26.29-.64.15-.38.21-.64.21-.82,0-.2-.12-.49-.32-.88-.26-.49-.55-.76-.9-.76-1.37,0-2.89.96-4.61,2.88-1.72,1.93-2.57,3.56-2.57,4.9,0,.47.17.93.52,1.41.4.52.9.78,1.48.78.47,0,1.11-.2,1.92-.64.56-.32,1.14-.64,1.7-.97.11.38.4.76.9,1.2.5.44.99.64,1.48.64h.79c1.17,0,2.21-.68,3.12-1.99-.09-.23-.06-.55-.44-.55Zm-6.44-1.69c-.24.21-.91.79-2.04,1.69-.5.15-.76.09-.79-.17.21-.91.64-1.87,1.34-2.86.82-1.19,1.72-1.98,2.74-2.39-.03.09-.03.2-.03.29,0,.32.24.73.68,1.17-.41.73-1.05,1.48-1.9,2.27Z"/>
        <path class="cls-1" d="m86.71,16.42c-.41.73-1.05,1.48-1.9,2.27-.24.21-.91.79-2.04,1.69-.5.15-.76.09-.79-.17.21-.91.64-1.87,1.34-2.86.82-1.19,1.72-1.98,2.74-2.39-.03.09-.03.2-.03.29,0,.32.24.73.68,1.17Z"/>
        <path class="cls-2" d="m102.57,19.54c.85-.55,1.49-.96,1.92-1.2.17.2.26.35.26.5,0,.52-.7,1.34-2.1,2.48-1.31,1.05-2.13,1.57-2.42,1.57-.55,0-.93-.73-1.08-2.16-.09-1.05-.15-2.1-.2-3.15-.38.47-.87,1.08-1.55,1.87-.55.61-1.17,1.6-1.81,2.95-.5.99-.9,1.49-1.28,1.49-.29,0-.53-.2-.73-.58-.15-.29-.2-.53-.2-.7,0-.82.23-2.65.67-5.51.55-3.5,1.08-5.25,1.6-5.25.67,0,1.22.53,1.22.99,0,.38-.32,1.98-.99,4.81l-.12,1.05c.17-.41.7-1.14,1.55-2.19,1.05-1.31,1.84-1.92,2.36-1.84.79.03,1.22.61,1.31,1.69.09,1.31.15,2.62.2,3.94.26-.06.7-.32,1.37-.76Z"/>
        <path class="cls-2" d="m120.89,9.8c-2.42,3.09-3.62,4.87-3.59,5.34.03.29.23.76.61,1.37.26.35.87,1.2,1.84,2.51.85.96,2.07,2.13,3.67,3.56.06.03.09.09.09.15,0,.32-.76.7-1.08.73-.61.03-1.75-.82-3.47-2.48-1.46-1.43-2.42-2.48-2.92-3.21-.55.76-.99,1.92-1.25,3.47-.41,2.3-.67,3.62-.76,3.91-.2.2-.44.32-.67.32-.12,0-.23-.03-.32-.09-.15-.2-.32-.53-.47-.9-.09-1.69.18-4.46.76-8.28l1.31-8.05c.32-2.01.5-3.5.5-4.46,0-.41-.03-.76-.06-1.08-.12-.79.61-1.57,1.34-1.6.61-.03,1.11.53,1.14,1.08.06.96-.12,2.6-.5,4.93-.38,2.3-.58,3.64-.64,4.02,0,.12-.17.87-.17,1.25,0,.2.03.35.12.47.82-1.14,2.01-2.77,3.62-4.84,2.45-3.18,3.88-4.81,4.29-4.93.5-.15.85-.03,1.11.32.2.38.2.64.09.87-.79.9-2.33,2.77-4.58,5.63Z"/>
        <path class="cls-2" d="m128.53,24.61c-.5,0-1.17-.82-1.98-2.42-.41-1.78-.58-3.35-.53-4.78.09-2.33.09-3.56,0-3.65l.26-.79c.15-.35.47-.53.93-.53.67,0,1.02.47,1.02,1.43,0,.26-.03.58-.09.96s-.09.58-.09.61v2.97c0,1.9.41,3.79,1.25,5.69-.15.32-.41.5-.79.5Zm1.17-15.69c-.64.44-1.17.64-1.55.64s-.7-.18-.9-.5c-.17-.26-.26-.52-.26-.82,0-.44.17-.79.53-1.02.2-.15.58-.2,1.08-.2.35,0,.67.06.99.17.41.18.61.41.61.7,0,.44-.17.79-.5,1.02Z"/>
        <path class="cls-2" d="m131.13,14.35c-.15-.29-.23-.58-.23-.87,0-.64.5-.96,1.52-.96.73,0,1.34-.03,1.87-.09.15-.9.41-2.25.79-4.08.26-1.2.5-2.01.7-2.51.44-.99.93-1.46,1.52-1.4.12.03.32.18.64.44.32.26.47.5.47.64,0-.03-.29.82-.9,2.51-.61,1.78-.99,3.24-1.14,4.32l1.25-.09c.88,0,1.46.03,1.72.12.15.12.23.23.23.38,0-.06-.09.18-.23.67-1.55.61-2.62.96-3.24,1.05-.15.38-.23,1.17-.23,2.3,0,1.25.12,2.3.32,3.18.26,1.08.67,1.6,1.17,1.6.35,0,.76-.23,1.25-.67s.76-.67.85-.67c.15,0,.32-.06.41-.06.15,0,.32.15.47.44v.44c-.18.55-.67,1.08-1.46,1.63-.79.55-1.43.82-1.98.82-2.04,0-3.06-2.07-3.06-6.18,0-.82.03-1.69.12-2.6-.09,0-.44.03-1.02.12-.55.06-.9.09-.99.09-.32,0-.58-.18-.79-.55Z"/>
        <path class="cls-2" d="m148.19,22.37c-1.72.73-2.95,1.08-3.7,1.05-.61-.03-1.25-.26-1.9-.7-.76-.53-1.14-1.11-1.17-1.78-.03-1.84.85-3.94,2.68-6.3,1.78-2.3,3.35-3.47,4.7-3.47.73,0,1.4.41,1.4.99,0,.12-.15.44-.44.96-.99-.17-2.3.7-3.91,2.62-1.55,1.87-2.3,3.35-2.3,4.46,0,.38.26.67.76.87.32.15.58.2.85.2.09,0,.35-.03.76-.09.44-.06.76-.12.99-.2.26-.09.82-.32,1.72-.7.9-.38,1.37-.58,1.46-.61.32-.09.64.12.76.12t.03.06c.09.09.15.2.15.35,0,.64-.93,1.37-2.83,2.16Z"/>
        <path class="cls-2" d="m162.28,22.05c-.55.38-.9.55-1.05.55-.79,0-1.37-.76-1.75-2.3-.03-.12-.17-.93-.41-2.45-.26.2-.93,1.22-2.04,3.06-1.02,1.69-1.69,2.54-1.95,2.54-.47,0-.87-.23-1.2-.67-.29-.38-.44-.79-.44-1.2,0-2.97.35-6.39,1.08-10.26.55-2.51,1.08-5.02,1.63-7.55.5-1.46.76-2.25.82-2.36.44-.93,1.02-1.4,1.75-1.4.15,0,.35.15.58.44.23.29.35.53.35.67,0,.17-.12.44-.35.82-.12.2-.23.38-.35.58-.73,1.52-1.46,4.17-2.22,7.99-.55,2.77-.99,5.31-1.25,7.55l.12,1.6c.67-1.11,1.31-2.22,1.95-3.3.82-1.25,1.55-1.9,2.16-1.9.47,0,.82.41,1.08,1.25.15.47.29,1.34.44,2.6.15,1.11.29,1.81.44,2.1.32-.09.58-.12.79-.12.55,0,.85.2.85.61,0,.35-.35.73-1.02,1.14Z"/>
        <path class="cls-2" d="m174.38,19.24c-.34.5-.99.97-1.9,1.41-.9.43-1.57.67-2.01.67-.64,0-1.17-.15-1.6-.41-.58-.38-.82-.96-.7-1.75,1.4-.35,2.66-1.08,3.73-2.19,1.2-1.19,1.81-2.45,1.81-3.79,0-.96-.64-1.46-1.96-1.46-1.84,0-3.73,1.75-5.68,5.25-.03,1.72-.15,2.31-.15,2.54,0,2.21,1.54,3.88,3.88,3.88,1.31-.15,2.57-.61,3.7-1.46l1.08-1.11c.32-.44.52-.85.7-1.29-.03-.7-.35-.78-.91-.29Zm-4.57-4.26c.52-.61.99-.99,1.4-1.08.17-.03.38,0,.55.15-.46,1.11-1.48,1.96-3.03,2.51.29-.56.64-1.08,1.08-1.58Z"/>
        <path class="cls-5" d="m171.75,14.05c-.46,1.11-1.48,1.96-3.03,2.51.29-.56.64-1.08,1.08-1.58.52-.61.99-.99,1.4-1.08.17-.03.38,0,.55.15Z"/>
        <path class="cls-2" d="m186.63,19.54c.85-.55,1.49-.96,1.93-1.2.17.2.26.35.26.5,0,.52-.7,1.34-2.1,2.48-1.31,1.05-2.13,1.57-2.42,1.57-.55,0-.93-.73-1.08-2.16-.09-1.05-.15-2.1-.2-3.15-.38.47-.88,1.08-1.55,1.87-.55.61-1.17,1.6-1.81,2.95-.5.99-.9,1.49-1.28,1.49-.29,0-.53-.2-.73-.58-.15-.29-.2-.53-.2-.7,0-.82.23-2.65.67-5.51.55-3.5,1.08-5.25,1.6-5.25.67,0,1.22.53,1.22.99,0,.38-.32,1.98-.99,4.81l-.12,1.05c.18-.41.7-1.14,1.55-2.19,1.05-1.31,1.84-1.92,2.36-1.84.79.03,1.22.61,1.31,1.69.09,1.31.15,2.62.2,3.94.26-.06.7-.32,1.37-.76Z"/>
      </g>
      <path class="cls-3" d="m65.27,6.84s-3.26,9.07,3.63,15.85c5.56,5.47,7.25,10.08,6.07,14.26s-4.13,3.59-4.13,3.59c0,0,5.76,1.12,5.58-7.13s-2.18-12.78,1.99-18.68c0,0-9.07,3.45-12.24-2.45,0,0-1.27-1.54-.91-5.44Z"/>
      <path class="cls-1" d="m67.93,8.43c0-1.64,1.89-3.53,5.33-3.53s5.16,2.05,5.16,3.53-.87,3.94-5.25,3.94-5.25-2.89-5.25-3.94Z"/>
      <text class="cls-7" transform="translate(44.07 36.47)"><tspan x="0" y="0">Indian</tspan></text>
      <text class="cls-7" transform="translate(82.9 36.47)"><tspan x="0" y="0">Cuisine Restaurant</tspan></text>
    </g>
  </g>
</svg>